<?xml version="1.0" encoding="UTF-8" standalone="no"?>
<!-- Created with Inkscape (http://www.inkscape.org/) -->

<svg
   xmlns:dc="http://purl.org/dc/elements/1.1/"
   xmlns:cc="http://creativecommons.org/ns#"
   xmlns:rdf="http://www.w3.org/1999/02/22-rdf-syntax-ns#"
   xmlns:svg="http://www.w3.org/2000/svg"
   xmlns="http://www.w3.org/2000/svg"
   xmlns:xlink="http://www.w3.org/1999/xlink"
   xmlns:sodipodi="http://sodipodi.sourceforge.net/DTD/sodipodi-0.dtd"
   xmlns:inkscape="http://www.inkscape.org/namespaces/inkscape"
   height="43.184452mm"
   width="43.283562mm"
   viewBox="0 0 153.36695 153.01577"
   id="svg3704"
   version="1.1"
   inkscape:version="0.91 r13725"
   sodipodi:docname="myidea.svg">
  <defs
     id="defs3710">
    <linearGradient
       inkscape:collect="always"
       xlink:href="#linearGradient3443"
       id="linearGradient3449"
       x1="1.3866856"
       y1="65.169853"
       x2="1.6954117"
       y2="71.068161"
       gradientUnits="userSpaceOnUse"
       gradientTransform="matrix(7.3597045,0,0,7.1637064,-6.7128567,-406.65987)" />
    <linearGradient
       inkscape:collect="always"
       id="linearGradient3443">
      <stop
         style="stop-color:#f99225;stop-opacity:1"
         offset="0"
         id="stop3445" />
      <stop
         style="stop-color:#d08f4b;stop-opacity:1"
         offset="1"
         id="stop3447" />
    </linearGradient>
    <linearGradient
       inkscape:collect="always"
       xlink:href="#linearGradient3425"
       id="linearGradient3431"
       x1="13.333455"
       y1="57.412125"
       x2="9.868578"
       y2="78.090096"
       gradientUnits="userSpaceOnUse"
       gradientTransform="matrix(5.5563795,0,0,5.6234373,15.949412,-195.0875)" />
    <linearGradient
       inkscape:collect="always"
       id="linearGradient3425">
      <stop
         style="stop-color:#4e73d9;stop-opacity:1"
         offset="0"
         id="stop3427" />
      <stop
         style="stop-color:#4f88bb;stop-opacity:1"
         offset="1"
         id="stop3429" />
    </linearGradient>
    <linearGradient
       inkscape:collect="always"
       xlink:href="#linearGradient3264"
       id="linearGradient3270"
       x1="13.221154"
       y1="57.315647"
       x2="1.1582513"
       y2="65.180054"
       gradientUnits="userSpaceOnUse"
       gradientTransform="matrix(5.6234373,0,0,5.6234373,14.4875,-195.0875)" />
    <linearGradient
       inkscape:collect="always"
       id="linearGradient3264">
      <stop
         style="stop-color:#e34984;stop-opacity:1"
         offset="0"
         id="stop3266" />
      <stop
         style="stop-color:#fe416f;stop-opacity:0.99607843"
         offset="1"
         id="stop3268" />
    </linearGradient>
    <linearGradient
       inkscape:collect="always"
       xlink:href="#linearGradient3605"
       id="linearGradient3594"
       gradientUnits="userSpaceOnUse"
       gradientTransform="matrix(0.98807529,0,0,0.99999999,2.8362389,21.288136)"
       x1="19.851862"
       y1="59.107044"
       x2="12.430637"
       y2="68.406326" />
    <linearGradient
       id="linearGradient3605"
       inkscape:collect="always">
      <stop
         id="stop3607"
         offset="0"
         style="stop-color:#4e73d9;stop-opacity:0.703" />
      <stop
         id="stop3609"
         offset="1"
         style="stop-color:#9f5ba1;stop-opacity:1" />
    </linearGradient>
    <linearGradient
       inkscape:collect="always"
       xlink:href="#linearGradient3617"
       id="linearGradient3623"
       x1="67.789291"
       y1="145.35774"
       x2="106.36244"
       y2="217.33681"
       gradientUnits="userSpaceOnUse" />
    <linearGradient
       inkscape:collect="always"
       id="linearGradient3617">
      <stop
         style="stop-color:#525050;stop-opacity:1"
         offset="0"
         id="stop3619" />
      <stop
         style="stop-color:#010101;stop-opacity:1"
         offset="1"
         id="stop3621" />
    </linearGradient>
    <filter
       inkscape:collect="always"
       style="color-interpolation-filters:sRGB"
       id="filter7515"
       x="-0.24840001"
       width="1.4968"
       y="-0.24839999"
       height="1.4968">
      <feGaussianBlur
         inkscape:collect="always"
         stdDeviation="10.224146"
         id="feGaussianBlur7517" />
    </filter>
  </defs>
  <sodipodi:namedview
     pagecolor="#ffffff"
     bordercolor="#666666"
     borderopacity="1"
     objecttolerance="10"
     gridtolerance="10"
     guidetolerance="10"
     inkscape:pageopacity="0"
     inkscape:pageshadow="2"
     inkscape:window-width="1317"
     inkscape:window-height="993"
     id="namedview3708"
     showgrid="false"
     fit-margin-top="0"
     fit-margin-left="0"
     fit-margin-right="0"
     fit-margin-bottom="0"
     inkscape:zoom="1.7940591"
     inkscape:cx="67.121588"
     inkscape:cy="68.778819"
     inkscape:window-x="363"
     inkscape:window-y="13"
     inkscape:window-maximized="0"
     inkscape:current-layer="svg3704" />
  <metadata
     id="metadata3706">
    <rdf:RDF>
      <cc:Work
         rdf:about="">
        <dc:format>image/svg+xml</dc:format>
        <dc:type
           rdf:resource="http://purl.org/dc/dcmitype/StillImage" />
        <dc:title></dc:title>
      </cc:Work>
    </rdf:RDF>
  </metadata>
  <path
     inkscape:connector-curvature="0"
     style="opacity:0.98699999;fill:url(#linearGradient3449);fill-opacity:1;fill-rule:evenodd;stroke:none;stroke-width:7.48400211px;stroke-linecap:butt;stroke-linejoin:miter;stroke-opacity:1"
     d="M 2.5011483,58.70123 A 76.870201,74.823052 0 0 0 -1.426356e-7,77.310083 76.870201,74.823052 0 0 0 5.6635208,105.40524 L 75.120736,78.527345 2.5011483,58.70123 Z"
     id="path3420" />
  <g
     id="g3611"
     transform="matrix(1.3026374,0,0,1.3026374,-25.202264,-164.25794)">
    <path
       id="path3189"
       d="m 89.560589,127.1069 -11.742192,59.62821 -7.748547,56.04765 a 58.03494,58.735341 0 0 0 8.974857,0.77981 58.03494,58.735341 0 0 0 58.038123,-58.73855 58.03494,58.735341 0 0 0 -47.522241,-57.71712 z"
       style="opacity:1;fill:url(#linearGradient3431);fill-opacity:1;fill-rule:evenodd;stroke:none;stroke-width:7.48400211px;stroke-linecap:butt;stroke-linejoin:miter;stroke-opacity:1"
       inkscape:connector-curvature="0" />
    <path
       id="path3247"
       d="m 78.344268,126.09644 a 58.735341,58.735341 0 0 0 -57.080087,45.16323 l 56.124541,15.66215 12.334217,-59.70509 a 58.735341,58.735341 0 0 0 -11.378671,-1.12029 z"
       style="opacity:1;fill:url(#linearGradient3270);fill-opacity:1;fill-rule:evenodd;stroke:none;stroke-width:0.19999999;stroke-linecap:butt;stroke-linejoin:miter;stroke-miterlimit:4;stroke-dasharray:none;stroke-opacity:1"
       inkscape:connector-curvature="0" />
    <path
       id="path3433"
       d="M 77.773135,184.25288 23.922134,206.8345 a 58.735341,58.735341 0 0 0 46.360408,36.10203 l 7.490593,-58.68365 z"
       style="opacity:1;fill:#9f5ba1;fill-opacity:1;fill-rule:evenodd;stroke:none;stroke-width:7.48400211px;stroke-linecap:butt;stroke-linejoin:miter;stroke-opacity:1"
       inkscape:connector-curvature="0" />
    <path
       id="path3590"
       transform="matrix(5.6234373,0,0,5.6234373,0,-314.8)"
       d="m 18.761719,79.560547 -3.642578,9.992187 8.941406,-3.210937 a 10.32019,10.44474 0 0 0 -5.298828,-6.78125 z"
       style="opacity:1;fill:url(#linearGradient3594);fill-opacity:1;fill-rule:evenodd;stroke:none;stroke-width:7.48400211px;stroke-linecap:butt;stroke-linejoin:miter;stroke-opacity:1"
       inkscape:connector-curvature="0" />
  </g>
  <path
     id="path3861"
     d="m 27.947712,27.671768 98.784018,0 0,98.784022 -98.784018,0 z"
     inkscape:connector-curvature="0"
     style="fill:#000000;fill-opacity:1;filter:url(#filter7515)" />
  <path
     style="fill:url(#linearGradient3623);fill-opacity:1"
     inkscape:connector-curvature="0"
     d="m 44.224999,150.7625 68.987501,0 0,68.9875 -68.987501,0 z"
     id="path7"
     transform="matrix(1.3026374,0,0,1.3026374,-25.202264,-164.25794)" />
  <path
     style="fill:#ffffff"
     inkscape:connector-curvature="0"
     d="m 40.864821,105.18646 44.155309,0 0,5.6034 -44.155309,0 z"
     id="path9" />
  <path
     style="fill:#ffffff"
     inkscape:connector-curvature="0"
     d="m 45.515818,43.337716 7.452197,0 0,33.614154 -7.452197,0 z"
     id="path11" />
  <path
     style="fill:#ffffff"
     inkscape:connector-curvature="0"
     d="m 40.759097,70.768146 16.807083,0 0,6.183724 -16.807083,0 z"
     id="path13" />
  <path
     style="fill:#ffffff"
     inkscape:connector-curvature="0"
     d="m 40.759097,43.337716 16.807083,0 0,6.183737 -16.807083,0 z"
     id="path15" />
  <path
     style="fill:#ffffff"
     inkscape:connector-curvature="0"
     d="m 73.739033,77.427554 c -2.695474,0 -4.756721,-0.475684 -6.65941,-1.427026 -1.744131,-0.951342 -3.171149,-2.219798 -4.439607,-3.488241 l 4.598164,-5.232395 c 0.951345,1.109886 1.902688,1.902684 2.854033,2.536912 0.951346,0.634215 2.061246,0.951342 3.171147,0.951342 1.427017,0 2.536917,-0.475671 3.329705,-1.268469 0.792788,-0.951342 1.268459,-2.378342 1.268459,-4.281053 l 0,-21.880908 7.610755,0 0,22.039491 c 0,2.061229 -0.317114,3.805369 -0.792787,5.232369 -0.475671,1.427027 -1.268459,2.695483 -2.37836,3.805395 -0.951346,0.951342 -2.219805,1.744127 -3.805376,2.378342 -1.268462,0.475684 -3.012591,0.634241 -4.756723,0.634241"
     id="path17" />
</svg>
